<svg id="Capa_1" xmlns="http://www.w3.org/2000/svg" viewBox="0 0 731 300"><style>.st0,.st1,.st2,.st3{fill-rule:evenodd;clip-rule:evenodd}.st0{fill-opacity:.94;fill:#140f38}.st1{fill:#ff2f73}.st2{fill:#2fcad7}.st3{fill:#1a1446}</style><g id="Construir_1_"><g id="Home_1_" transform="translate(-124 -19)"><g id="Group_1_" transform="translate(124 19)"><g id="ico_imagotipo_1_" transform="translate(44.107 7.727)"><path id="Fill-1_1_" class="st0" d="M686.6 93.7c0-1.7-1.1-2.8-2.8-2.8h-9.6c-1.7 0-2.8 1.1-2.8 2.8V191c0 1.7 1.1 2.8 2.8 2.8h9.6c1.7 0 2.8-1.1 2.8-2.8V93.7z"/><path id="Fill-8_1_" class="st0" d="M630.9 93.7c0-1.7-1.1-2.8-2.8-2.8h-9.6c-1.7 0-2.8 1.1-2.8 2.8v57.9c0 9-.6 13.5-3.4 17.4-3.4 6.2-10.7 10.1-18.6 10.1-7.9 0-15.2-3.9-18.6-10.1-2.2-4.5-3.4-8.4-3.4-17.4V93.7c0-1.7-1.1-2.8-2.8-2.8h-9.6c-1.7 0-2.8 1.1-2.8 2.8v61.8c0 10.1 2.2 17.4 7.9 23.6 6.7 9 18 14.1 29.2 14.1s21.9-5.1 29.2-14.1c5.1-6.7 7.9-14.1 7.9-23.6l.2-61.8z"/><path id="Fill-12_1_" class="st0" d="M521.3 189.8c2.2 2.2 1.7 4.5-1.7 4.5h-10.1c-1.1 0-3.4-.6-3.9-1.7l-33.2-33.2c-2.2-2.2-.6-6.2 2.2-6.2h7.3c1.1 0 3.4.6 3.9 1.7l35.5 34.9z"/><path id="Fill-10_1_" class="st0" d="M499.3 167.4c6.7-7.3 9.6-14.1 9.6-24.7 0-21.4-15.7-37.7-36.5-37.7s-36 16.3-36 37.7c0 10.7 3.4 19.7 10.7 26.4 6.7 6.7 15.7 10.7 24.7 10.7 6.2 0 12.4-1.7 17.4-4.5m10.1 10.6c-7.9 5.1-17.4 7.9-27 7.9-14.1 0-28.7-6.7-38.8-17.4-7.9-9-12.4-20.8-12.4-33.7 0-28.7 22.5-51.7 50.6-51.7s51.2 23.6 51.2 52.9c0 13.5-4.5 23.6-14.1 34.3"/><path id="Fill-6_1_" class="st0" d="M381.3 193.8h3.9c1.7 0 2.8-1.1 2.8-2.8v-9c0-1.7-1.1-2.8-2.8-2.8h-37.6v-32h37.6c1.7 0 2.8-1.1 2.8-2.8v-9c0-1.7-1.1-2.8-2.8-2.8H347v-27h37.7c1.7 0 2.8-1.1 2.8-2.8v-9c0-1.7-1.1-2.8-2.8-2.8h-50c-1.7 0-2.8 1.1-2.8 2.8V191c0 1.7 1.1 2.8 2.8 2.8h46.6z"/><path id="Fill-4_1_" class="st0" d="M288.5 90.9h-9.6c-1.7 0-2.8 1.7-2.8 2.8v68L212.6 92s-1.1-1.1-2.8-1.1h-3.4c-1.7 0-2.8 1.1-2.8 2.8v97.2c0 1.7 1.1 2.8 2.8 2.8h9.6c1.7 0 2.8-1.7 2.8-2.8v-69.7l65.8 72s1.1 1.1 2.2 1.1h2.2c1.7 0 2.8-1.1 2.8-2.8V94.3c-.5-2.3-1.6-3.4-3.3-3.4"/></g><g id="Logo_1_"><path id="Guayaba_1_" class="st1" d="M21.1 99l85.5-42.7c5.1-2.8 11.8-1.7 15.2 2.8l73.7 81c4.5 5.1 4.5 12.4 0 16.9l-79.3 83.2c-7.9 7.3-20.8 6.7-27-1.7l-77-101.8C2 123.8 6.5 106.3 21.1 99"/><path id="Quirúrgico_1_" class="st2" d="M5.3 138.4L61 64.2c3.4-4.5 9.6-6.2 15.2-3.9l104.6 41.6c6.2 2.2 9.6 9 7.9 15.2l-30.4 108c-3.4 9.6-15.2 14.6-25.3 10.1L15.5 176.6C.3 168.7-4.2 151.3 5.3 138.4"/><path id="Medianoche_1_" class="st3" d="M43.6 87.8l45-22.5 61.8 24.2 35.4 38.8-15.7 55.1-45 47.2-66.9-33.2-46.1-60.7c-1.1-1.1-1.7-2.2-2.2-3.4l33.7-45.5z"/></g></g></g></g></svg>