<svg id="Capa_1" xmlns="http://www.w3.org/2000/svg" viewBox="0 0 731 300"><style>.st0{fill:#111820}.st1{fill:#e62d31}</style><path class="st0" d="M333 155.8c0-7.2-.2-12.8-.5-18.3h9l.5 9.6h.2c4.2-6.9 10.7-10.8 19.9-10.8 13.6 0 23.7 11.4 23.7 28.4 0 20.1-12.3 30-25.3 30-7.4 0-13.7-3.3-17.2-8.7h-.2v30.4H333v-60.6zm10.1 15c0 1.4.2 2.9.5 4.2 1.8 7.1 8 11.9 15.2 11.9 10.7 0 17-8.7 17-21.5 0-11.2-5.8-20.8-16.6-20.8-6.9 0-13.4 4.9-15.4 12.5-.4 1.3-.7 2.7-.7 4.2v9.5zm55.5-59.1h10.1v81.7h-10.1v-81.7zm58 81.7l-.7-7.1h-.4c-3.1 4.3-9 8.3-17 8.3-11.2 0-17-8-17-16.1 0-13.6 11.9-20.8 33.5-20.8v-1.1c0-4.5-1.3-12.8-12.7-12.8-5.2 0-10.7 1.6-14.5 4.2l-2.4-6.7c4.5-3.1 11.2-4.9 18.3-4.9 17 0 21.2 11.6 21.2 22.8V180c0 4.9.2 9.6.9 13.4h-9.2zm-1.4-28.3c-11-.2-23.7 1.8-23.7 12.5 0 6.5 4.3 9.8 9.6 9.8 7.2 0 11.9-4.5 13.6-9.4.4-1.1.5-2.2.5-3.3v-9.6zm38-43.4v16.1h14.5v7.8h-14.5v30c0 6.9 2 10.8 7.6 10.8 2.7 0 4.5-.4 5.8-.7l.5 7.6c-2 .7-5.1 1.4-9 1.4-4.7 0-8.5-1.4-11-4.3-2.9-3.1-4-8-4-14.5v-30.4h-8.7v-7.8h8.7v-13.4l10.1-2.6zm56.7 71.7l-.7-7.1h-.4c-3.1 4.3-9 8.3-17 8.3-11.2 0-17-8-17-16.1 0-13.6 11.9-20.8 33.5-20.8v-1.1c0-4.5-1.3-12.8-12.7-12.8-5.2 0-10.7 1.6-14.5 4.2l-2.4-6.7c4.5-3.1 11.2-4.9 18.3-4.9 17 0 21.2 11.6 21.2 22.8V180c0 4.9.2 9.6.9 13.4h-9.2zm-1.6-28.3c-11-.2-23.7 1.8-23.7 12.5 0 6.5 4.3 9.8 9.6 9.8 7.2 0 11.9-4.5 13.6-9.4.4-1.1.5-2.2.5-3.3v-9.6z"/><path class="st1" d="M151.4 116.8c-20.3-.5-46.3 51.9-53.2 69.3-3.8 9.8 8.1 16.6 11.9 7.1 6.3-16.1 28.4-61.3 41.2-61.1 12.8 0 34 45.4 40.3 61.7 3.8 9.8 15.9 2.9 12.1-6.9-6.7-17.7-32.2-70.5-52.3-70.1zm-54 37.9c0-.5-.2-1.3-.2-1.8-.7-3.8-1.8-7.2-3.6-10.3 0 0 0-.2-.2-.2-.4-.7-.9-1.6-1.4-2.4-.4-.5-.7-.9-.9-1.4-.2-.4-.5-.5-.7-.9-.5-.5-.9-1.3-1.4-1.8-.5-.5-1.1-1.3-1.6-1.8l-.4-.4c-21.2-21-67.4-18.8-80.6-13.2-8.9 3.8-5.8 14.8 4 10.5 15.9-4 31.3-4 47 0 12.8 3.3 26.2 14.5 26.2 26.6-.9 30-40.7 31.3-56.8 27.3v-37.4c0-8.9-11.4-9-11.4 0v37.6c0 7.6 4 10.3 9 11.4 12.1 2.7 63.1 5.8 72.1-30.4.2-.7.4-1.4.4-2 .2-.5.2-1.3.4-1.8.4-2.5.4-4.7.2-7.1-.1-.3-.1-.5-.1-.5zm213.3-29.8c0-10.5-13-10.3-13-.2v65.6c0 9.8 13 10.1 13 .4v-65.8zm-32.7-3.8c-5.8 16.3-25.3 61.7-37.1 61.7-11.9.2-32.2-44.8-38.2-60.9-3.6-9.8-14.6-2.7-11 7.1 6.5 17.4 30.7 69.8 49.5 69.1 18.6.4 41.9-52.6 48.1-70 3.3-10.1-7.9-16.7-11.3-7z"/><path class="st1" d="M613.6 85.9c-10.1-8.7-27.5-21.5-32.5-25.3.7-8 2-16.5 4-23.7 2.2-8.3 4-15.4 0-20.4-2.7-3.4-7.2-4.9-14.5-4.9h-26.9c-6.1 0-10.7 1.8-13.2 5.2-2 2.5-2.9 6.1-2.4 10.1C499 11 473.8 1.8 459.9 1.6c-15 0-42.9 10.8-74.7 28.9-4.5 2.5-32 18.8-45.2 28.9-.2.2-22.1 15.9-34.2 26-5.8 4.9-10.1 9.4-13.2 13.6-.5.5-.7 1.3-.7 2.2 0 1.8 1.4 3.3 3.3 3.3 1.1 0 2-.5 2.5-1.3 0 0 .9-1.3 1.6-2.2 2.7-3.4 6.3-7.1 10.7-10.7 11.9-9.9 33.5-25.7 33.8-25.9 13-10.1 40.1-26 44.5-28.6C419 18.3 445.8 8 459.7 7.8c13.9.2 40.5 10.5 71.4 28 1.1.7 2.5.5 3.6-.2s1.4-2.2 1.3-3.4c-.2-.7-.4-1.6-.7-2.4-.2-.4-.2-.9-.4-1.3-.5-2-1.3-5.8.5-8.1 1.6-2.2 5.2-2.7 8.1-2.7h26.9c4.9 0 8.1.9 9.4 2.4 2 2.5.4 8.5-1.3 14.8-2 8.1-3.6 17.9-4.2 26.6 0 1.1.4 2.2 1.3 2.9.2.2 21.9 16.1 33.8 26.2 14.3 12.1 20.4 23.3 17.2 31.8-3.6 9.2-19 14.8-38 13.9-2.2-.2-4.5-.2-6.7-.4l-4.2-.2c-.9 0-1.8.4-2.5.9-.7.7-1.1 1.4-.9 2.4.2 10.3 3.3 31.3 21 55.1 15.9 19 18.1 40.9 6.3 60-14.1 23-49.2 41.6-96.2 30.9-.5-.2-1.3-.2-1.8 0-12.8 4.3-33.6 6.1-44.3 6.1s-31.5-2-44.3-6.1c-.4-.2-.7-.2-1.1-.2h-.7c-47 10.5-82.1-8-96.2-30.9-7.6-12.5-9.2-26.2-5.1-39.4 0 0 .2-.7.2-1.3v-.2c-.2-1.4-1.1-2.5-2.5-2.7-1.4-.4-2.7.4-3.4 1.4-.4.5-.7 2-.7 2-4.2 14.6-2.2 29.7 6.1 43.4 12.3 20.1 39.2 37.1 75.2 37.1 8.5 0 17.5-.9 26.9-3.1 14.3 4.5 35.3 6.3 45.4 6.3 10.1 0 31.3-1.6 45.4-6.3 49.7 10.8 87.2-9.2 102.3-34.2 13-21.5 10.5-46.8-6.9-67.4-14.6-19.7-18.6-37.2-19.3-47.7h.5c2.2.2 4.3.2 6.7.4 22.2 1.1 39.6-6 44.3-18.1 3.6-7 2.8-20.2-18.5-38.2z"/></svg>