<svg id="Capa_1" xmlns="http://www.w3.org/2000/svg" viewBox="0 0 382 300"><style>.st0{display:none}.st1{display:inline;fill:none;stroke:#040006;stroke-miterlimit:10}.st2{fill:#1b1a17}.st3{fill:#ffd300}.st4{fill:#f60203}.st5{fill:#fffaf7}</style><g id="Capa_2_1_" class="st0"><path class="st1" d="M-705.2 798.9l-65 44.2c2.3 7.6 3.6 15.7 3.6 24.1 0 45.2-36.7 81.9-81.9 81.9s-81.9-36.7-81.9-81.9 36.7-81.9 81.9-81.9c36 0 66.6 23.3 77.6 55.6l64.8-44c-25.9-52.4-79.9-88.4-142.3-88.4-87.7 0-158.7 71.1-158.7 158.7 0 87.7 71.1 158.7 158.7 158.7 87.7 0 158.7-71.1 158.7-158.7-.1-24.4-5.6-47.6-15.5-68.3z"/></g><path class="st2" d="M309.4 1.2l-44 66.6L190 41.1l52.1 66.7-48.5 62.5 72.9-29.3 42.9 63.7-3.9-77.6 76.5-23.3-79.8-24.2z"/><path class="st3" d="M308.2 5.6l-40.8 63.1-72.2-26.1 47.7 59.4-48.4 62.5 72.9-29.3 42.9 63.7-3.9-77.7 73.2-20L306 80.5z"/><path class="st4" d="M128.7 150l-7.3-40.6-16.2.1-21.4 40.3H98l2.5-5.2h13.3v5.4h14.9zm-24-14.4l5.9-13.9 1.9 13.9h-7.8zM216.5 150l-7.3-40.6-16.2.1-21.4 40.3h14.2l2.5-5.2h13.3v5.4h14.9zm-24-14.4l5.9-13.9 1.9 13.9h-7.8zm-17.5-8.5l-3.7 22.4h-5.7v-5s-4.9 6.3-17.4 6.3c-12.6 0-19.5-7.6-17.7-19.4s9.4-24 27.4-24 18.7 12.5 18.5 15.9c-3.7 0-15-.3-15-.3s.1-5-6.2-5-9.1 7.1-9.8 11.2c-.6 4.2.3 11.4 6 11.6 5.7.2 9-5.1 9-5.1h-5.5l1.5-8.7 18.6.1zm-95.1-17.6H55.1l-7.4 40h13.4l1.9-12.7h16.8c6.6 0 12.3-4.7 13.4-11.2 1.6-8.4-4.8-16.1-13.3-16.1zm-1.4 14.6c-.5 2.3-2.5 3.9-4.9 3.9H64l2.1-10h7.5c3.3 0 5.6 3 4.9 6.1zM5.3 158.4L2 178.6h25.2l-10.8 60.9 26 .3 11.3-61.2h25.2l2.2-19.9z"/><path class="st4" d="M125.2 155.6s-44.7-4.5-51.8 42.6c-7.1 47.5 26.9 45.1 39 45.1 14.9 0 46-3.6 51.3-35.9 4.6-28.2 7.2-51.2-38.5-51.8zm11.5 46.7c-4.8 23.5-21.6 20.6-21.6 20.6s-17.9-.9-13.5-24.3c2.6-13.9 9.7-19.3 15-21.5 3.9-1.6 8.3-1.5 12.2.1 5.4 2.4 11.3 8.4 7.9 25.1zm176.6-46.7s-44.7-4.5-51.8 42.6c-7.1 47.5 26.9 45.1 39 45.1 14.9 0 46-3.6 51.3-35.9 4.6-28.2 7.2-51.2-38.5-51.8zm11.4 46.7c-4.8 23.5-21.6 20.6-21.6 20.6s-17.9-.9-13.5-24.3c2.6-13.9 9.7-19.3 15-21.5 3.9-1.6 8.3-1.5 12.2.1 5.5 2.4 11.3 8.4 7.9 25.1zm-94.5-42.8h-52.7l-14.1 80.7h55.4s33.2.1 38.6-39.2c4.5-33.4-5.8-41.5-27.2-41.5zm.3 37.4l-.8 5c-1.6 10.1-10.3 17.6-20.5 17.6h-15.1l5.8-40.4h15.4c9.4.1 16.6 8.5 15.2 17.8zm-118.6 54.5H88.2l-7.3 43.8h12.6l2.8-17.3h2.9l7.1 17.3h13.5l-4.4-14.5s-1.3-3.7-3.9-3.7c5.4 0 10.1-3.8 11.2-9.1l.6-2.8c1.3-7.1-4.1-13.7-11.4-13.7zm-2.2 14.4c-.4 2.3-2.6 4-5.2 4h-7.2l1.4-9.2h5.8c3.2 0 5.6 2.5 5.2 5.2zm-40.9-14.2H55l-22.5 43.5h13.8l2.9-7.1h13.2l.3 7.1h12.6l-6.5-43.5zm-16.7 27.8l8.8-16.4.4 16.3-9.2.1zM157 251.6h-13.8l-22.5 43.5h13.8l2.9-7.1h13.2l.3 7.1h12.6l-6.5-43.5zm-16.7 27.8l8.8-16.4.4 16.3-9.2.1zM26.4 251.6H8l-8 43.5h12.8l3.3-16h10.2c6.2 0 11.7-4.2 13.3-10.2 2.4-8.7-4.2-17.3-13.2-17.3zm2 15.7c-.6 2.6-2.9 4.5-5.6 4.5h-7l2.5-11.4h4.5c3.6 0 6.3 3.3 5.6 6.9zm187.5-15.6h-35l-1.2 10.4h11.8l-5.7 33.3h11l5.6-33.3h12.3zm63.9-.2h-19.3l-7.1 44.3h21.7s13.8-1.3 16.6-22.8c2.8-21.5-11.9-21.5-11.9-21.5zm1.3 17.4l-1.7 11.3c-.5 3.2-3.2 5.5-6.4 5.5h-5.9l3.6-24.2h4c4 0 7 3.5 6.4 7.4z"/><path class="st4" d="M236.3 251.3s-20.4-.9-23.5 23c-3 23.9 16.4 22.3 16.4 22.3s18.8 1.4 22.7-22.3c3.8-23.6-15.6-23-15.6-23zm4.2 22.1c-.9 9.2-5.2 11.9-7.8 12.7-1.2.4-2.6.2-3.7-.5-1.9-1.3-4.8-4.5-3.9-12.3 1.6-12.7 9.6-11.5 9.6-11.5s6.9.2 5.8 11.6zm78.5-22.1s-20.4-.9-23.5 23c-3 23.9 16.4 22.3 16.4 22.3s18.8 1.4 22.7-22.3c3.8-23.6-15.6-23-15.6-23zm4.1 22.1c-.9 9.2-5.2 11.9-7.8 12.7-1.2.4-2.6.2-3.7-.5-1.9-1.3-4.8-4.5-3.9-12.3 1.6-12.7 9.6-11.5 9.6-11.5s6.9.2 5.8 11.6zm18.6-22H354l-7.3 30.5h-7.1zm-4.4 33.5l-1.3 10.5h10.3l1.5-10.4z"/><path class="st5" d="M270.4 111.1l5.3-13.7c-4-3-6.6-6.1-7.7-9.4s-1-6.7.4-10.3c1.4-3.6 3.7-6.1 7.1-7.7 3.3-1.5 7-1.7 11.1-.5l1.3-3.2 5 1.9-1.3 3.2c3.5 1.8 5.9 4.1 7.3 6.9s1.7 5.9 1.1 9.5l-9.1-2.3c.5-2.8-.2-5.1-2.1-6.8l-5 12.8c4.9 3.6 8 6.8 9.1 9.9 1.1 3 1 6.3-.4 9.9-1.5 4-4.1 6.8-7.6 8.5-3.6 1.7-7.7 2.1-12.4.9l-2.4 6.1-5-1.9 2.3-6c-3.8-2-6.4-4.7-8-8s-1.8-7.3-.9-11.8l9.3 2.6c-.3 1.9-.2 3.7.3 5.3.5 1.7 1.3 3 2.3 4.1zm4.8 2.3c1.8.4 3.5.1 5.1-.7 1.5-.8 2.6-2 3.3-3.7.6-1.5.6-2.9.1-4.3s-1.7-2.8-3.5-4.2l-5 12.9zm8.5-36.8c-1.5-.1-2.9.2-4.1 1-1.2.7-2.1 1.7-2.5 3-.4 1.2-.5 2.4-.2 3.7.3 1.3 1.1 2.5 2.4 3.7l4.4-11.4z"/><path class="st2" d="M270.4 111.1l5.3-13.7c-4-3-6.6-6.1-7.7-9.4s-1-6.7.4-10.3c1.4-3.6 3.7-6.1 7.1-7.7 3.3-1.5 7-1.7 11.1-.5l1.3-3.2 5 1.9-1.3 3.2c3.5 1.8 5.9 4.1 7.3 6.9s1.7 5.9 1.1 9.5l-9.1-2.3c.5-2.8-.2-5.1-2.1-6.8l-5 12.8c4.9 3.6 8 6.8 9.1 9.9 1.1 3 1 6.3-.4 9.9-1.5 4-4.1 6.8-7.6 8.5-3.6 1.7-7.7 2.1-12.4.9l-2.4 6.1-5-1.9 2.3-6c-3.8-2-6.4-4.7-8-8s-1.8-7.3-.9-11.8l9.3 2.6c-.3 1.9-.2 3.7.3 5.3.5 1.7 1.3 3 2.3 4.1zm4.8 2.3c1.8.4 3.5.1 5.1-.7 1.5-.8 2.6-2 3.3-3.7.6-1.5.6-2.9.1-4.3s-1.7-2.8-3.5-4.2l-5 12.9zm8.5-36.8c-1.5-.1-2.9.2-4.1 1-1.2.7-2.1 1.7-2.5 3-.4 1.2-.5 2.4-.2 3.7.3 1.3 1.1 2.5 2.4 3.7l4.4-11.4z"/><path class="st5" d="M271.8 111.4l5.3-13.7c-4-3-6.6-6.1-7.7-9.4s-1-6.7.4-10.3c1.4-3.6 3.7-6.1 7.1-7.7 3.3-1.5 7-1.7 11.1-.5l1.3-3.2 5 1.9-1.3 3.2c3.5 1.8 5.9 4.1 7.3 6.9s1.7 5.9 1.1 9.5l-9.1-2.3c.5-2.8-.2-5.1-2.1-6.8l-5 12.8c4.9 3.6 8 6.8 9.1 9.9 1.1 3 1 6.3-.4 9.9-1.5 4-4.1 6.8-7.6 8.5-3.6 1.7-7.7 2.1-12.4.9l-2.4 6.1-5-1.9 2.3-6c-3.8-2-6.4-4.7-8-8s-1.8-7.3-.9-11.8l9.3 2.6c-.3 1.9-.2 3.7.3 5.3.6 1.7 1.3 3 2.3 4.1zm4.8 2.3c1.8.4 3.5.1 5.1-.7 1.5-.8 2.6-2 3.3-3.7.6-1.5.6-2.9.1-4.3s-1.7-2.8-3.5-4.2l-5 12.9zm8.6-36.8c-1.5-.1-2.9.2-4.1 1-1.2.7-2.1 1.7-2.5 3-.4 1.2-.5 2.4-.2 3.7.3 1.3 1.1 2.5 2.4 3.7l4.4-11.4z"/></svg>