<svg id="Capa_1" xmlns="http://www.w3.org/2000/svg" viewBox="0 0 731 300"><style>.st0{display:none}.st1{display:inline;fill:none;stroke:#040006;stroke-miterlimit:10}.st2{fill:#004389}.st3{fill:#61b700}.st4{fill:#f50000}.st5{fill:#005cab}.st6{fill:#ffd800}.st7{opacity:.4;fill:#fff}</style><g id="Capa_2_1_" class="st0"><path class="st1" d="M-530.7 798.9l-65 44.2c2.3 7.6 3.6 15.7 3.6 24.1 0 45.2-36.7 81.9-81.9 81.9s-81.9-36.7-81.9-81.9 36.7-81.9 81.9-81.9c36 0 66.6 23.3 77.6 55.6l64.8-44c-25.9-52.4-79.9-88.4-142.3-88.4-87.7 0-158.7 71.1-158.7 158.7 0 87.7 71.1 158.7 158.7 158.7 87.7 0 158.7-71.1 158.7-158.7-.1-24.4-5.6-47.6-15.5-68.3z"/></g><path class="st2" d="M540.8 183h-30.2c-1.5-4.1-2.9-8.3-4.4-12.4-3.9-11-7.8-22.1-11.6-33.1-.3-.8-.6-1-1.4-1H482c-.9 0-1.1.3-1.2 1.1-1.1 10.4-2.3 20.7-3.5 31-.2 1.8-.4 3.6-.6 5.5h-30.2c4.3-36.5 8.6-73 13-109.5h1.4c15.8 0 31.7 0 47.5.1 5.3 0 10.5.6 15.6 2.4 9.5 3.3 15.1 10.1 16.3 19.9 1.2 9.5.1 19-3.3 28-2.6 6.9-6.7 12.9-13.4 16.6-.8.4-.5.9-.3 1.5 3.2 9.1 6.3 18.1 9.5 27.2 2.5 7.2 5 14.4 7.6 21.6.1.2.2.6.4 1.1zm-55-95.3c-.9 8.6-1.8 17.1-2.7 25.8 6-.3 12 .6 17.8-.7 3.5-.7 6.1-2.7 7.3-6.2 1.4-4 1.9-8.1 1.7-12.3-.1-3.5-2-5.8-5-6.5-.8-.2-1.7-.3-2.5-.3h-15.2c-.4.1-.8.1-1.4.2zm86.3 48.7c.1 4.3-.1 8.5 1.9 12.3.8 1.6 2.3 2.3 3.9 2.7 4 .8 8 .7 12.1.6 12.2-.4 24-3 35.6-6.5 1.2-.4 2.4-.7 3.7-1h.5c-1.1 4.1-2.1 8.2-3.2 12.3-1.1 4.1-2.1 8.2-3.2 12.4-.2.9-.6 1.4-1.7 1.6-11.1 2-22.2 3.7-33.5 4-7.6.2-15.1.2-22.6-1.1-4.3-.7-8.4-2-12.1-4.3-6.4-3.9-9.5-9.9-10.9-17-1.2-6.6-1.3-13.2-.6-19.8.7-6.9 1.6-13.7 2.6-20.6.9-5.6 2.5-11 4.9-16.2 4.8-10.3 12.9-16.4 23.9-18.9 5.6-1.3 11.3-1.7 17-1.8 7.2-.1 14.4-.1 21.5 1 4.5.7 8.9 1.7 13 3.6 7.5 3.5 11.7 9.4 12.3 17.7.5 6.8-.3 13.4-3.1 19.7-3.7 8.4-10.4 13.2-18.9 15.9-6.8 2.2-13.8 2.9-20.8 3.1-6.9.1-13.9.1-20.8.2-.3.1-.8.1-1.5.1zm2.6-22.9c.5 0 .9.1 1.3.1 5.4 0 10.9.1 16.3 0 3.4-.1 6.7-.7 10-1.2 2.2-.4 3.7-1.8 4.1-4.1.3-1.4.5-2.8.6-4.2.1-3.3-.7-4.4-4-5.1-5.9-1.3-11.9-1.3-17.9-.6-2 .2-3.9.7-5.2 2.3-3.2 3.5-4.1 8.2-5.2 12.8zm72.7-37.9h50.4c4.7 0 9.4.3 13.9 1.7 8.7 2.6 13.8 8.5 15.9 17.2 1.4 6 1.6 12 1.1 18.1-.5 6.3-1 12.7-1.9 19-1.1 8.7-2.8 17.2-6.8 25.1-4.9 9.8-12.9 15.3-23.7 16.6-5.6.6-11.4.7-17.1.8-14 .1-28 0-41.9 0h-1.2c3.8-32.8 7.6-65.5 11.3-98.5zm21.6 75.8c6-.3 11.7-.3 17.3-.8 4.2-.4 7-3.1 8.1-7.3.5-1.9.8-4 1.1-6 .9-7.2 1.9-14.5 2.7-21.7.4-3.5.8-7 .8-10.4 0-4.1-2.6-6.5-6.7-6.5-5.4-.1-10.9 0-16.3-.1-.9 0-1 .4-1.1 1.1-.1 1.8-.4 3.5-.6 5.3-.7 6.3-1.5 12.6-2.2 19-.7 6.2-1.5 12.5-2.2 18.7-.2 2.7-.5 5.5-.9 8.7zM354 76.7c-.3 2.8-.6 5.5-.9 8.1-.7 6.4-1.4 12.7-2.2 19.1-.8 7.1-1.7 14.2-2.4 21.2-.7 6.5-1.4 13-.4 19.5.1.8.4 1.6.6 2.5.7 2.5 2.3 3.9 4.9 4.4 5.2.9 10.3.8 15.5 0 2.8-.4 4.7-2 6-4.4 2.1-3.9 3.1-8.1 3.8-12.4 1.1-7.5 1.9-15 2.8-22.4.9-7.8 1.8-15.7 2.7-23.5.5-4 .9-8 1.4-12.1H416c-.2 2.3-.5 4.6-.7 6.8-.7 6.5-1.5 12.9-2.2 19.4-.8 7.1-1.6 14.2-2.4 21.4-.7 6.7-1.7 13.3-3.4 19.8-1.3 5.1-3.1 10-5.9 14.4-4.9 7.8-12.1 12.3-20.9 14.5-5.1 1.2-10.2 1.8-15.4 1.8-6.1 0-12.2.1-18.2-.4-4.1-.3-8.2-1.1-12.1-2.4-9.2-3-14.5-9.6-16.4-19-1.2-6.1-1.4-12.3-.8-18.4 1.1-11.7 2.4-23.3 3.6-35 .8-7.3 1.7-14.7 2.5-22 .1-.7.3-1 1.1-1h28.6c.2-.1.3 0 .6.1zM224 171c1.5-8.1 2.9-16 4.4-24 2 .5 3.9 1 5.9 1.5 8.8 2.1 17.7 3.3 26.8 3.6 4.4.1 8.9.1 13.2-.9 5-1.1 7.3-4.6 6.4-9.5-.3-1.5-1-2.6-2.4-2.9-2.2-.5-4.3-1.1-6.6-1.3-4-.3-8.1-.2-12.1-.4-6.9-.3-13.7-1.1-20.2-3.7-9.6-3.9-14.6-11.3-14.7-21.6 0-5.1.6-10.2 2.2-15.1 3.2-9.3 9.9-15.1 19-18.2 5.2-1.8 10.6-2.8 16-3 6.9-.2 13.8-.5 20.6.1 7.4.6 14.8 2 22.2 3 1.1.2 2.2.4 3.3.7.3 8.7.6 17.3.9 26.1-2.5-.8-4.9-1.4-7.2-2.2-7.6-2.5-15.4-4.3-23.3-4.9-5.9-.4-11.8-.7-17.7.4-3 .6-4.8 2.1-5.2 5.2-.2 1.5-.4 3.1-.4 4.6 0 2 .6 2.9 2.5 3.3 3.1.5 6.3.9 9.5 1 7.3.2 14.7.3 21.9 2 4.3 1 8.4 2.4 12.1 4.9 6 4.1 9.3 9.8 9.9 17 .5 6.9-.5 13.7-3.7 19.9-3.9 7.7-10.5 12.2-18.5 14.8-7.1 2.4-14.5 3.1-21.9 3.4-14.1.5-28-1-41.8-3.4-.3-.1-.6-.2-1.1-.4zm310.7 98.9c.5-3.1 1.1-6 1.5-9 .8-4.9 1.6-9.8 2.3-14.7.2-1.6-.1-3.3-.3-4.9-.3-1.5-1.3-2.4-2.8-2.8-2.6-.6-5.3-.6-7.9.2-1.8.6-3 1.9-3.8 3.5-1.6 3.3-2.2 6.9-2.9 10.4-1 5.5-1.9 11-2.9 16.4 0 .2-.2.5-.2.8h-5.4c.6-3.2 1.1-6.4 1.6-9.6.8-5.3 1.5-10.6 2.2-15.9.1-.6 0-1.3-.1-1.9-.3-2.3-1.5-3.8-3.8-4.1-2-.2-4-.2-6 0-2.6.3-4.4 1.9-5.2 4.3-1.1 3.6-2 7.2-2.8 10.9-1.1 5.4-1.9 10.8-2.9 16.3h-5.5c.3-1.6.5-3.1.8-4.7 1.2-6.3 2.3-12.7 3.6-19 .4-1.8 1-3.5 1.7-5.1 1.7-4.1 4.7-6.4 9.1-6.7 2.8-.2 5.6-.2 8.3-.1 2.8.2 5.3 1.3 7 3.9 2-1.9 4.2-3.2 6.9-3.7 3.6-.7 7.2-.7 10.7 0 4 .7 6.1 3.2 5.9 7.6-.1 4.3-.7 8.6-1.3 12.9-.7 4.7-1.6 9.4-2.4 14.1-.1.7-.4 1-1.1 1-1.2-.1-2.7-.1-4.3-.1zm21.8-52.8h5.5c-1 5.8-2 11.6-3 17.5 1.5-.2 2.9-.4 4.2-.4 3.2 0 6.5-.1 9.7.4 3.8.5 5.8 2.9 6 6.7.1 3.2 0 6.4-.5 9.6-.5 3.4-1.3 6.8-2.3 10.1-1.8 5.9-5.8 9.4-12.2 9.5-3.1.1-6.3.1-9.3-.3-4.9-.6-6.7-3.4-5.9-8.3 1.6-9.7 3.4-19.4 5.1-29.1.8-5.3 1.7-10.4 2.7-15.7zm4.4 49.5c5.1-.1 7.6-1.4 9.3-5.4 2.3-5.5 3.3-11.4 3.1-17.4-.1-3.7-1.9-5.5-5.6-5.5-2.8 0-5.7.3-8.6.5-.9 0-1.1.5-1.2 1.3-.2 1.5-.5 2.9-.8 4.4l-3 17.7c-.3 2.1.6 3.5 2.7 4 1.4.2 2.8.2 4.1.4zm-383.4-49.5h5.5c-.3 1.8-.6 3.5-.8 5.1-2.3 12.8-4.5 25.6-6.8 38.5-.1.7-.3 1.4-.5 2.1-1 4.2-3.7 6.6-7.9 7.3-4.1.7-8.3.8-12.5.1-3.8-.7-5.9-2.9-6.2-6.8-.6-7.6.9-14.9 3.7-21.9 2-5.1 6.2-7.3 11.5-7.5 3.2-.1 6.5.2 9.7.4 1 .1 1.4-.1 1.6-1.2.7-5.3 1.7-10.6 2.7-16.1zm-3.8 21.6c-2.6-.2-5.1-.6-7.7-.6-4.2-.1-7.6 1.3-9.2 5.5-2.2 5.6-3.2 11.4-3 17.4.1 3.2 1.6 4.8 4.7 5.2 1.7.2 3.6.2 5.3 0 4-.5 5.3-1.8 6-5.8.9-5.1 1.8-10.1 2.7-15.2.4-2 .7-4.1 1.2-6.5zm55.5-21.6h5.5c-.3 1.8-.6 3.6-.9 5.3-2.3 12.9-4.5 25.7-6.8 38.6-.3 1.7-.9 3.4-1.7 5-1.3 2.6-3.9 3.7-6.6 4.2-4.1.7-8.3.8-12.5.1-3.7-.7-5.9-2.9-6.2-6.6-.5-7.7.9-15.2 3.8-22.3 2.1-5 6.3-7 11.4-7.1 3.2-.1 6.5.2 9.7.4.9.1 1.2-.1 1.4-1.1 1-5.6 1.9-11 2.9-16.5zm-3.8 21.8c-3.1-.6-6-.9-9-.7-3.7.2-6.3 1.8-7.7 5.2-2.3 5.6-3.3 11.5-3.1 17.5.1 3.4 1.7 5.1 5 5.4 1.7.2 3.5.2 5.2-.1 3.9-.5 5.1-1.8 5.8-5.7l2.7-15.3c.3-2 .7-4.1 1.1-6.3zm-184 1.2c.5-1.6.8-2.9 1.3-4.2.1-.3.5-.5.8-.6 5.6-1.2 11.2-1.7 16.8-.9 4 .6 6.1 3.1 6.2 7.4.2 7.1-1.1 13.9-3.4 20.6-1.8 5.1-5.4 7.9-10.9 8.2-3.7.2-7.3.3-10.9-.6-3.9-.9-5.6-3.2-5.3-7.1.1-1.3.3-2.7.6-4 1-4.7 4.1-7.5 8.8-8 4.2-.5 8.5-.4 12.8-.6 2.4-.1 2.5 0 2.6-2.5.1-1.8.2-3.6 0-5.4-.3-2.6-1.8-4.1-4.5-4.1-3.3 0-6.5.3-9.8.6-1.6.2-3.2.7-5.1 1.2zm18.2 14.5c-4.1 0-8-.3-11.9.1-4.3.4-6.1 2.9-6.1 7.2 0 2.3.8 3.7 3.1 4 2.4.4 4.9.3 7.4.2 2.1-.1 3.7-1.4 4.7-3.2 1.6-2.5 2.3-5.4 2.8-8.3zM600.1 240c.4-1.3.8-2.7 1.2-4 .1-.3.4-.7.7-.7 5.7-1.2 11.4-1.9 17.2-.9 4.1.7 6 3.2 6 7.8.1 6.6-1.1 13.1-3.1 19.4-1.8 5.6-5.5 8.7-11.5 9-3.6.2-7.2.2-10.7-.6-3.7-.9-5.4-3.1-5.2-7 .1-1.9.5-3.9 1.1-5.7 1.3-4 4.3-6 8.3-6.5 4-.4 8.1-.5 12.1-.6 3.1-.1 3.1 0 3.3-3.2.1-1.5.1-3.1 0-4.7-.2-2.5-1.7-4-4.2-4.1-2.3-.1-4.6-.1-6.9.1-2.8.4-5.5 1.1-8.3 1.7zm18.3 14.5c-4 0-7.7-.3-11.4.1-4.7.4-6.6 2.8-6.5 7.5 0 2.2.8 3.5 3 3.9 2.5.4 5 .3 7.5.2 1.8-.1 3.3-1.2 4.3-2.7 1.8-2.7 2.4-5.8 3.1-9zm-359.2 10.2c-.4 1.4-.9 2.8-1.4 4.2-.1.2-.4.4-.7.5-5.7 1.1-11.5 1.9-17.3.8-3.5-.7-5.2-2.6-5.7-6.2-.6-4.1.2-8.2.9-12.2.6-3 1.3-6 2.2-8.9 1.6-5.2 5-8.5 10.7-8.7 3.5-.1 7.1-.1 10.6.4 4.8.7 6.6 3.5 6 8.3-.1 1-.3 1.9-.5 2.9-1.2 4.9-4.1 7.7-9.4 8.2-4.3.4-8.7.4-13 .5-1.2 0-1.7.3-1.7 1.5 0 1.8-.3 3.5-.2 5.3.1 3.5 1.7 5.1 5.3 5.3 4.4.2 8.7-.4 12.9-1.6l1.2-.3c-.1-.2 0-.2.1 0zm-18.4-14.6c.5.1.8.1 1.1.1 3.4-.1 6.8.1 10.2-.2 4.9-.4 6.9-3 6.7-7.8-.1-1.8-.8-3-2.6-3.4-1.7-.4-3.6-.6-5.4-.6-2.2 0-4.4.2-6 1.9-2.6 2.7-3.1 6.4-4 10zm-101 14.3c-.5 1.6-1 3-1.5 4.4-.1.2-.4.5-.6.5-5.7 1.1-11.4 1.9-17.2.8-3.7-.7-5.7-2.9-5.9-6.7-.3-7.6 1-14.9 3.7-22 1.6-4.3 4.8-6.8 9.5-7.3 4.1-.4 8.2-.5 12.2.5 3.5.9 5.1 2.8 5 6.5-.1 2-.4 3.9-1 5.8-1.3 4.4-4.7 6.5-8.9 6.9-4.3.4-8.7.4-13 .5-1.3 0-1.7.4-1.7 1.6 0 1.6-.2 3.2-.2 4.8 0 3.9 1.7 5.5 5.6 5.7 4.3.2 8.6-.5 12.7-1.7.2 0 .6-.1 1.3-.3zm-18.5-14.3c.4.1.6.1.8.1 3.5-.1 7.1 0 10.6-.3 4.4-.3 6.5-2.7 6.6-7.1.1-2.5-.9-4-3.3-4.3-2.3-.3-4.7-.4-7-.2-2 .1-3.6 1.2-4.7 2.9-1.7 2.8-2.4 5.8-3 8.9zm308.3-16.3c2 .2 4 .3 6 .7 3.5.7 5.2 2.8 5.6 6.4.4 4.1-.2 8.1-.9 12.1-.5 2.6-1.1 5.3-1.9 7.8-2.2 7-5.3 9.4-12.6 9.8-2.7.1-5.4 0-8.1-.4-4.1-.6-6-3-6.1-7.1-.2-7.2 1.1-14.3 3.5-21.1 1.9-5.3 5.8-7.8 11.3-8h3.2v-.2zm6.1 11.3V243c-.2-2.6-1.4-4.2-3.8-4.5-2-.2-4.1-.2-6.2 0-2.1.2-3.7 1.5-4.6 3.3-.6 1.1-1.2 2.3-1.5 3.5-.8 3.2-1.5 6.4-2 9.6-.4 2.5-.4 5.1-.3 7.7.1 2.1 1.5 3.3 3.6 3.7 1.2.2 2.3.3 3.5.2 4.5 0 6.8-1.5 8.3-5.8 1.9-5.1 2.7-10.3 3-15.6zm-120-11.2c1.6.1 3.1.1 4.7.3 4.8.7 7 3 7 7.9.1 6.7-1.1 13.2-3.2 19.5-1.8 5.5-5.5 8.7-11.4 8.8-3.1 0-6.2.1-9.2-.3-3.6-.5-5.3-2.6-5.8-6.2-.6-4.6.3-9.2 1.2-13.7.5-2.7 1.3-5.4 2.2-8 1.8-5.5 5.8-8 11.5-8.2h3v-.1zm-12.4 25.6c0 .8-.1 1.5 0 2.3.2 2.6 1.4 4 4 4.4 1.4.2 2.8.2 4.2.2 3.3-.1 5.7-1.5 6.9-4.6 1-2.7 1.8-5.5 2.4-8.4.7-3.6 1.4-7.3.9-11-.3-2.5-1.7-3.9-4.2-4.2-.7-.1-1.4-.1-2.1-.2-4.8-.3-7.6 1.4-9.2 5.9-1.8 5.1-2.5 10.3-2.9 15.6zm172.5-25.7c2 .2 4 .3 6 .7 3.5.7 5.2 2.8 5.6 6.4.4 4.1-.1 8.1-.9 12.1-.8 3.5-1.7 7.1-2.9 10.4-1.7 4.5-5.2 6.8-10 7-3.1.1-6.3.2-9.4-.2-4.2-.5-6.1-2.8-6.2-7-.2-7.5 1.1-14.7 3.7-21.7 1.9-5.1 5.9-7.3 11.1-7.5h3.2c-.2 0-.2-.1-.2-.2zm6.1 11.2c.1-4.3-.9-6.9-6-6.9h-.2c-4.5.1-7.5.4-9.3 5.8-1.1 3.2-1.7 6.5-2.3 9.8-.6 2.9-1.1 5.8-.5 8.8.3 1.5.9 3 2.5 3.4 5.4 1.4 11 1.1 13.1-5.5 1.5-5 2.4-10.1 2.7-15.4zm200-11.1c1.8.1 3.4.2 5.1.4 4.2.5 6.5 2.7 6.7 6.9.3 7.6-1 15-3.8 22.1-1.8 4.5-5.3 6.9-10.1 7.1-3.3.1-6.6.1-9.8-.3-3.6-.4-5.7-2.8-5.8-6.5-.1-3.1 0-6.2.5-9.3.6-3.8 1.5-7.6 2.5-11.3 1.3-4.5 4-7.9 9-8.7 2-.2 3.9-.3 5.7-.4zm-5.5 32.5c5.2 0 7.5-1.4 9.1-6.5 1-3.2 1.7-6.6 2.2-10 .4-2.6.5-5.2.3-7.8-.2-2.5-1.7-3.8-4.3-4-1.4-.1-2.8-.1-4.2 0-2.9.1-5.1 1.5-6.3 4.2-.8 1.9-1.6 3.9-1.9 5.9-.7 4.3-1.4 8.6-1.7 12.9-.2 3.4 1.7 5.1 5.1 5.3.6.1 1.2 0 1.7 0zm-48.8 3.5c.8-4.6 1.5-9.2 2.4-13.7.9-4.4 1.9-8.7 2.9-13.1.2-.8.6-1.6.9-2.3 1.9-4.3 5.3-6.4 9.8-6.6 3.2-.1 6.4-.1 9.6.2 4 .5 6 3 6.2 7.4.2 4.4-.5 8.7-1.3 13.1-.8 4.7-1.7 9.4-2.5 14.1-.1.8-.4 1.1-1.2 1-1.4-.1-2.9 0-4.5 0 .4-2.1.7-4.1 1-6 1-6.2 2.2-12.4 2.8-18.6.6-6.4-2.3-7.2-7.5-7.1-.8 0-1.5.1-2.3.2-2.7.4-4.5 2-5.3 4.5-1.1 3.2-1.9 6.5-2.6 9.9-1.1 5.4-1.9 10.9-2.9 16.3 0 .3-.2.6-.3.9-1.5-.2-3.3-.2-5.2-.2zm-297.8-5.3c3.5.6 6.7 1.2 10 1.7 2.8.4 5.6.3 8.3-.6 3.6-1.2 4.8-4.4 4.4-7.5-.1-1.3-.9-2.3-2.2-2.7-1.5-.4-3-.6-4.6-.8-2.5-.3-5-.3-7.4-.8-3.5-.8-5.2-3-5-6.6.1-2.3.6-4.7 1.3-6.9 1.4-4 4.7-5.6 8.6-6.1 5.1-.7 10.2-.3 15.2.8.7.2 1.1.4 1 1.2-.1 1.2 0 2.4 0 3.7-2.1-.5-4-1.1-5.9-1.4-3.1-.6-6.3-.9-9.4-.2-3.2.7-4.9 2.8-5.1 6.1v1.4c0 2 .8 3.2 2.8 3.5 2.3.3 4.6.3 6.9.6 1.5.2 3 .4 4.5.8 3 .9 4.9 2.9 5 6.1.1 3.4-.5 6.7-2.7 9.4-2.2 2.9-5.4 3.7-8.8 4.1-5.3.6-10.6 0-15.9-1-.8-.1-1.1-.4-1.1-1.2.2-1.2.1-2.4.1-3.6zm396-29.2v4.7c-2-.5-3.9-1-5.9-1.4-3.2-.6-6.4-.9-9.5-.2-3.8.9-6.1 5.1-4.8 8.8.7 1.9 2.4 2.3 4.1 2.4 2.5.2 5 .3 7.6.5.9.1 1.8.3 2.7.7 3.5 1.3 5.1 3.9 4.7 7.9-.1 1-.3 2.1-.6 3.1-1.4 5.3-5.1 8-11 8.6-5.3.5-10.4-.1-15.6-1-.8-.1-1.2-.4-1.1-1.3.1-1.2 0-2.4 0-3.7 2.7.5 5.2 1.1 7.8 1.5 3.3.5 6.6.8 9.8-.1 3.5-1 5.4-3.7 5.1-7.3-.1-1.5-.8-2.7-2.3-3.1-1.5-.4-3-.6-4.6-.7-2.4-.3-4.9-.3-7.3-.8-3.8-.9-5.3-3.4-5-7.5.1-1.7.4-3.3.9-5 1-3.6 3.4-5.9 7.1-6.8 6-1.4 12-.8 17.9.7zm-716.6 30h22.7c-.2 1.4-.4 2.7-.7 4-.1.3-.8.5-1.2.5H2.6c2.9-16.5 5.7-32.9 8.6-49.3h5.9c-2.7 15-5.3 29.8-7.9 44.8zm396.3-1.1c-.5 1.6-1 3-1.5 4.4-.1.3-.4.5-.7.6-5.3 1.2-10.6 1.8-15.9.8-3.5-.7-5.2-2.7-5.7-6.2-.6-4.2.2-8.3.9-12.3.6-3.2 1.4-6.3 2.4-9.4 1.7-5.3 5.6-7.9 11.1-8.2 4.2-.2 8.3 0 12.4 1 .9.2 1.3.6 1.2 1.5-.1 1.1 0 2.2 0 3.5-.5-.1-.7-.2-1-.2-3.7-1.4-7.6-1.9-11.5-1.7-3.2.2-5.6 1.7-6.6 4.6-1.1 3-1.9 6.2-2.5 9.4-.5 2.8-.8 5.8-.9 8.7-.1 3.8 1.6 5.5 5.4 5.6 4.3.2 8.5-.4 12.9-2.1zm43.8 5.6h-5.5c3.1-17.6 6.1-35.2 9.2-52.8h5.5c-3.1 17.6-6.2 35.2-9.2 52.8zm-156.5-52.8h5.5c-.4 2.4-.8 4.7-1.2 7.1-1.8 10.5-3.7 21.1-5.5 31.6-.8 4.4-1.5 8.8-2.3 13.2-.1.7-.4 1.1-1.2 1-1.5-.1-2.9 0-4.5 0 3.1-17.7 6.2-35.3 9.2-52.9zm-178.7 17.2c0 1.6.1 2.9 0 4.1 0 .2-.7.6-1 .6-2.4-.2-4.8-.7-7.2-.8-4.8-.2-7.4.6-8.8 5.6-1.3 4.4-2 8.9-2.9 13.4-.8 3.9-1.4 7.9-2.1 11.8-.1.3-.5.8-.8.8-1.6.1-3.1 0-4.8 0 .5-2.9.9-5.7 1.5-8.4 1.1-5.7 2.2-11.3 3.3-17 .2-.9.6-1.9.9-2.8 1.7-4.9 5.1-7.5 10.3-7.7 3.7.1 7.6.3 11.6.4zM587 269.9h-5.5c2-11.8 4.1-23.4 6.1-35.2h5.5c-2 11.8-4 23.5-6.1 35.2zm2.2-43.9c.3-1.5.5-3 .8-4.5.1-.3.5-.9.8-.9 1.6-.1 3.2 0 4.9 0-.3 1.9-.6 3.6-.9 5.4h-5.6z"/><path class="st3" d="M102.5 73.8c-5.2 7-13.2 12.6-22.7 14.9-16.8 4.2-32.9-1-39.6-12.8-1.1-1.9-1.9-4-2.5-6.2-4-16.1 8.9-34.1 28.4-39 19.5-4.8 38.2 2.5 42.2 18.6 2.1 8.3-.3 17.2-5.8 24.5z"/><path class="st4" d="M190.4 127.6c.2 27-20.1 47.1-48.7 47.2-14 .1-26.9-6.8-36.2-16.8-8.7-9.5-14.2-21.7-14-33.7.2-17.2 8.3-31.9 21.1-40.4 7.3-4.9 16.3-7.6 26.2-7.6 27.1.1 51.3 22.7 51.6 51.3z"/><path class="st5" d="M44.3 114.6c0 13.5-7 24.9-16.5 27.8-1.5.5-3.1.7-4.7.7C11.5 143 2 130.3 2 114.6s9.5-28.5 21.1-28.5c2.5 0 4.9.6 7.1 1.6 8.2 4 14.1 14.5 14.1 26.9z"/><path class="st6" d="M97.3 201.4c-9.8 11.2-31.6 9.3-46.8-4.1-13.8-12.1-18-28.6-11.4-39.9.7-1.2 1.5-2.3 2.4-3.3 9.8-11.2 31.8-8.9 47.1 4.5 2.5 2.2 4.6 4.4 6.4 6.8 9.5 12.2 10.5 26.6 2.3 36z"/><path class="st7" d="M44.3 114.6c0 13.5-7 24.9-16.5 27.8-3.8-7.5-5.9-16.1-5.9-25.2 0-10.9 3.1-21 8.3-29.4 8.2 3.9 14.1 14.4 14.1 26.8zm-4.1-38.7c8.8-7.7 20.1-12.4 32.4-12.4 11.2 0 21.5 3.8 29.9 10.2-5.2 7-13.2 12.6-22.7 14.9-16.8 4.3-32.9-.9-39.6-12.7zM95 165.3c-6.7 3.5-14.3 5.4-22.3 5.4-12.9 0-24.6-5.1-33.6-13.4.7-1.2 1.5-2.3 2.4-3.3 9.8-11.2 31.8-8.9 47.1 4.5 2.4 2.2 4.6 4.4 6.4 6.8zm28.5-48.1c0 16.4-7 31.1-18 40.9-8.7-9.5-14.2-21.7-14-33.7.2-17.2 8.3-31.9 21.1-40.4 6.8 9.1 10.9 20.6 10.9 33.2z"/></svg>